<svg width="20" height="20" viewBox="0 0 20 20" fill="none" xmlns="http://www.w3.org/2000/svg">
<path fill-rule="evenodd" clip-rule="evenodd" d="M12.7273 2.72729C16.7439 2.72729 20 5.98341 20 10C20 14.0166 16.7439 17.2727 12.7273 17.2727C10.0371 17.2727 7.60566 15.7988 6.34004 13.4804C6.09946 13.0398 6.26168 12.4875 6.70237 12.2469C7.14305 12.0063 7.69533 12.1685 7.9359 12.6092C8.88592 14.3495 10.7089 15.4546 12.7273 15.4546C15.7397 15.4546 18.1818 13.0125 18.1818 10C18.1818 6.98756 15.7397 4.54548 12.7273 4.54548C10.7509 4.54548 8.96026 5.60472 7.99347 7.28802C7.74341 7.7234 7.18776 7.87363 6.75238 7.62358C6.317 7.37352 6.16677 6.81787 6.41683 6.38249C7.70466 4.14022 10.0932 2.72729 12.7273 2.72729ZM11.5014 6.58302L11.5587 6.63673L14.0691 9.20032C14.3528 9.35416 14.5455 9.65459 14.5455 10C14.5455 10.3522 14.3452 10.6576 14.0523 10.8086L11.5423 13.2448C11.1821 13.5945 10.6066 13.586 10.2568 13.2258C9.9255 12.8845 9.91571 12.35 10.2219 11.9973L10.2759 11.9403L11.3373 10.9091H0.909091C0.407014 10.9091 0 10.5021 0 10C0 9.49795 0.407014 9.09093 0.909091 9.09093H11.4164L10.2595 7.90877C9.92676 7.56891 9.91468 7.03444 10.2194 6.68045L10.2731 6.62319C10.6129 6.29042 11.1474 6.27834 11.5014 6.58302Z" fill="#FDC420"/>
</svg>
