<svg width="40" height="40" viewBox="0 0 40 40" fill="none" xmlns="http://www.w3.org/2000/svg">
<path fill-rule="evenodd" clip-rule="evenodd" d="M3.33325 9.99992C3.33325 9.07944 4.07944 8.33325 4.99992 8.33325H34.9999C35.9204 8.33325 36.6666 9.07944 36.6666 9.99992C36.6666 10.9204 35.9204 11.6666 34.9999 11.6666H4.99992C4.07944 11.6666 3.33325 10.9204 3.33325 9.99992ZM3.33325 19.9999C3.33325 19.0794 4.07944 18.3333 4.99992 18.3333H34.9999C35.9204 18.3333 36.6666 19.0794 36.6666 19.9999C36.6666 20.9204 35.9204 21.6666 34.9999 21.6666H4.99992C4.07944 21.6666 3.33325 20.9204 3.33325 19.9999ZM3.33325 29.9999C3.33325 29.0794 4.07944 28.3333 4.99992 28.3333H34.9999C35.9204 28.3333 36.6666 29.0794 36.6666 29.9999C36.6666 30.9204 35.9204 31.6666 34.9999 31.6666H4.99992C4.07944 31.6666 3.33325 30.9204 3.33325 29.9999Z" fill="white"/>
</svg>
