<svg width="30" height="30" viewBox="0 0 30 30" fill="none" xmlns="http://www.w3.org/2000/svg">
<g clip-path="url(#clip0_1_5339)">
<path fill-rule="evenodd" clip-rule="evenodd" d="M0 0H30V30H0V0ZM5.8233 20.905V16.195H10.81L11.345 16.8917L11.8983 16.195H30V20.58C30 20.58 29.5266 20.9 28.9783 20.905H18.955L18.3516 20.1633V20.905H16.3766V19.6383C16.3766 19.6383 16.1066 19.815 15.5233 19.815H14.85V20.905H11.8566L11.3216 20.1933L10.7783 20.905H5.8233ZM0 12.645L1.125 10.0233H3.07L3.70833 11.4916V10.0233H6.12667L6.50667 11.085L6.875 10.0233H17.7283V10.5566C17.7283 10.5566 18.2983 10.0233 19.2367 10.0233L22.7583 10.035L23.385 11.485V10.0233H25.4083L25.965 10.8566V10.0233H28.0067V14.7333H25.965L25.4317 13.8983V14.7333H22.4583L22.16 13.9916H21.3617L21.0683 14.7333H19.0517C18.245 14.7333 17.7283 14.21 17.7283 14.21V14.7333H14.6867L14.0833 13.9916V14.7333H2.78167L2.48333 13.9916H1.68667L1.39 14.7333H0V12.645Z" fill="#BFDFFF"/>
<path fill-rule="evenodd" clip-rule="evenodd" d="M1.52326 10.6033L0.0065918 14.13H0.993258L1.27326 13.4233H2.89992L3.17826 14.13H4.18826L2.67326 10.6033H1.52326ZM2.08326 11.425L2.57993 12.6583H1.58659L2.08326 11.425ZM4.29163 14.13V10.6033L5.69496 10.6083L6.51163 12.8817L7.3083 10.6033H8.69996V14.13H7.8183V11.5317L6.88496 14.13H6.11163L5.17329 11.5317V14.13H4.29163ZM9.30328 14.13V10.6033H12.1816V11.3917H10.1949V11.995H12.1349V12.7383H10.1949V13.365H12.1816V14.13H9.30328ZM12.6916 10.6033V14.13H13.5732V12.8767H13.9449L15.0016 14.13H16.0782L14.9182 12.83C15.3949 12.79 15.8849 12.3817 15.8849 11.7467C15.8849 11.005 15.3016 10.6033 14.6516 10.6033H12.6916ZM13.5732 11.3933H14.5815C14.8232 11.3933 14.9999 11.5817 14.9999 11.765C14.9999 12 14.7715 12.1367 14.5949 12.1367H13.5732V11.3933ZM17.1466 14.13H16.2466V10.6033H17.1466V14.13ZM19.2799 14.13H19.0849C18.1449 14.13 17.5732 13.39 17.5732 12.3817C17.5732 11.3483 18.1382 10.6033 19.3249 10.6033H20.2999V11.4383H19.2899C18.8082 11.4383 18.4665 11.815 18.4665 12.39C18.4665 13.0733 18.8565 13.36 19.4182 13.36H19.6499L19.2799 14.13ZM21.1999 10.6033L19.6832 14.13H20.6699L20.9499 13.4233H22.5766L22.8549 14.13H23.8649L22.3499 10.6033H21.1999ZM21.7599 11.425L22.2566 12.6583H21.2633L21.7599 11.425ZM23.9682 14.13V10.6033H25.0882L26.5199 12.8183V10.6033H27.4016V14.13H26.3166L24.8499 11.8567V14.13H23.9682ZM6.42664 20.3016V16.775H9.30331V17.5633H7.3183V18.1666H9.25831V18.91H7.3183V19.5366H9.30331V20.3016H6.42664ZM20.5249 20.3016V16.775H23.4015V17.5633H21.4149V18.1666H23.3449V18.91H21.4149V19.5366H23.4015V20.3016H20.5249ZM9.41499 20.3016L10.8166 18.56L9.38165 16.775H10.4933L11.3466 17.8783L12.2049 16.775H13.2716L11.8566 18.5383L13.2599 20.3016H12.1483L11.3199 19.215L10.5099 20.3016H9.41499ZM13.3649 16.775V20.3016H14.2699V19.1883H15.1982C15.9832 19.1883 16.5782 18.7716 16.5782 17.9616C16.5782 17.29 16.1116 16.775 15.3116 16.775H13.3649ZM14.2699 17.5733H15.2466C15.4999 17.5733 15.6816 17.7283 15.6816 17.98C15.6816 18.215 15.5016 18.3866 15.2432 18.3866H14.2682V17.5733H14.2699ZM16.9599 16.775V20.3016H17.8416V19.0483H18.2133L19.2699 20.3016H20.3466L19.1866 19.0016C19.6632 18.9616 20.1532 18.5533 20.1532 17.9183C20.1532 17.1766 19.5699 16.775 18.9199 16.775H16.9599ZM17.8416 17.5633H18.8499C19.0916 17.5633 19.2683 17.7516 19.2683 17.935C19.2683 18.17 19.0399 18.3066 18.8633 18.3066H17.8416V17.5633ZM23.8099 20.3016V19.5366H25.5749C25.8366 19.5366 25.9499 19.3949 25.9499 19.2416C25.9499 19.0933 25.8366 18.9433 25.5749 18.9433H24.7782C24.0849 18.9433 23.6999 18.5216 23.6999 17.8866C23.6999 17.3216 24.0532 16.7766 25.0832 16.7766H26.7999L26.4282 17.5699H24.9432C24.6599 17.5699 24.5716 17.7183 24.5716 17.8616C24.5716 18.0083 24.6799 18.1683 24.8966 18.1683H25.7316C26.5049 18.1683 26.8399 18.6066 26.8399 19.1799C26.8399 19.7966 26.4666 20.3016 25.6899 20.3016H23.8099ZM27.0449 20.3016V19.5366H28.7349C28.9966 19.5366 29.1099 19.3949 29.1099 19.2416C29.1099 19.0933 28.9966 18.9433 28.7349 18.9433H28.0116C27.3182 18.9433 26.9332 18.5216 26.9332 17.8866C26.9332 17.3216 27.2866 16.7766 28.3166 16.7766H29.9999L29.6282 17.5699H28.1782C27.8949 17.5699 27.8066 17.7183 27.8066 17.8616C27.8066 18.0083 27.9149 18.1683 28.1316 18.1683H28.8916C29.6649 18.1683 29.9999 18.6066 29.9999 19.1799C29.9999 19.7966 29.6266 20.3016 28.8499 20.3016H27.0449Z" fill="#BFDFFF"/>
</g>
<defs>
<clipPath id="clip0_1_5339">
<rect width="30" height="30" fill="white"/>
</clipPath>
</defs>
</svg>
