<svg width="68" height="22" viewBox="0 0 68 22" fill="none" xmlns="http://www.w3.org/2000/svg">
<path d="M28.4058 0.4227L23.8463 21.8586H29.3715L33.7926 0.4227H28.4058ZM20.3925 0.4227L14.7289 14.948L12.3808 2.53771C12.104 1.1267 10.9998 0.4227 9.89419 0.4227H0.638393L0.5 0.9868C2.4345 1.4095 4.50588 2.11501 5.88831 2.82051C6.71716 3.24321 6.85556 3.66742 7.13234 4.65422L11.415 21.7187H17.217L26.0591 0.2828H20.3955V0.42421L20.3925 0.4227ZM63.3576 0.4227H58.6612C57.5556 0.4227 56.7267 0.9868 56.3131 1.97361L48.1629 21.8586H53.8265L54.9321 18.6154H61.8398L62.5302 21.8586H67.5034L63.3591 0.4227H63.3576ZM56.7267 14.244L59.6285 6.2051L61.2862 14.244H56.7267ZM40.977 6.3465C40.977 5.64103 41.6675 4.79562 43.3252 4.51282C44.154 4.37142 46.2269 4.37142 48.7135 5.49962L49.6807 0.9868C48.4367 0.5641 46.6421 0 44.5692 0C39.1809 0 35.4518 2.96191 35.4518 7.052C35.4518 10.1554 38.2151 11.8477 40.1481 12.8345C42.221 13.8213 42.9115 14.5268 42.9115 15.5136C42.9115 16.9246 41.2538 17.6286 39.5961 17.6286C36.8327 17.6286 35.3134 16.9231 34.0709 16.2176L33.1036 20.8718C34.3477 21.4359 36.6958 22 39.1824 22C44.846 22 48.5766 19.1795 48.5766 14.6667C48.5766 9.3069 40.8401 8.8842 40.9785 6.3465H40.977Z" fill="#BFDFFF"/>
</svg>
