<svg width="31" height="31" viewBox="0 0 31 31" fill="none" xmlns="http://www.w3.org/2000/svg">
<path fill-rule="evenodd" clip-rule="evenodd" d="M11.0573 10.7113C12.2181 10.7113 13.1597 11.6332 13.1597 12.7705C13.1597 13.9079 12.2181 14.8297 11.0573 14.8297C9.89657 14.8297 8.95495 13.9079 8.95495 12.7705C8.95495 11.6332 9.89657 10.7113 11.0573 10.7113ZM19.5204 10.7113C20.6812 10.7113 21.6228 11.6332 21.6228 12.7705C21.6228 13.9079 20.6812 14.8297 19.5204 14.8297C18.3596 14.8297 17.418 13.9079 17.418 12.7705C17.418 11.6332 18.3596 10.7113 19.5204 10.7113ZM10.0784 2.64471H20.9216C21.1712 2.3574 21.5659 1.99931 22.1134 1.64482C23.0824 1.01741 24.2519 0.607927 25.6243 0.518393L25.9062 0.5L26.0433 0.741968C26.0724 0.793216 26.1246 0.889196 26.1967 1.02768C26.3156 1.25591 26.4477 1.52216 26.5897 1.82418C26.9942 2.6845 27.3983 3.66101 27.7752 4.73594C28.9859 8.18828 29.6477 11.8387 29.472 15.4982C29.1039 23.1686 23.0444 29.8912 16.2042 30.4579V30.5H15.7588C15.708 30.5 15.6698 30.499 15.5868 30.4959C15.5364 30.4941 15.5163 30.4934 15.5092 30.4929C15.4837 30.4934 15.4636 30.4941 15.4132 30.4959L15.387 30.4969C15.3271 30.499 15.2858 30.5 15.2417 30.5H14.7962V30.4579C7.95571 29.8913 1.89606 23.1687 1.528 15.4982C1.35225 11.8387 2.01414 8.18828 3.22478 4.73594C3.60173 3.66101 4.00577 2.6845 4.41026 1.82418C4.55227 1.52216 4.68437 1.25591 4.80325 1.02768C4.87538 0.889196 4.92763 0.793216 4.95667 0.741968L5.0938 0.500003L5.37572 0.518393C6.74826 0.607926 7.91783 1.01741 8.88678 1.64482C9.43422 1.99931 9.82887 2.35739 10.0784 2.64471ZM25.3975 1.41317C24.3095 1.52631 23.3818 1.86955 22.6047 2.3727C22.2694 2.58977 21.9865 2.82156 21.7552 3.05188C21.6204 3.18605 21.5352 3.28623 21.4989 3.33576L21.3656 3.51726H9.6344L9.5011 3.33571C9.46474 3.28619 9.3796 3.18602 9.24486 3.05185C9.01356 2.82154 8.73071 2.58975 8.39549 2.3727C7.61845 1.86954 6.69064 1.5263 5.60255 1.41317C5.60065 1.41681 5.59873 1.42049 5.59679 1.42421C5.48324 1.64221 5.35635 1.89795 5.21943 2.18916C4.82702 3.0238 4.43415 3.97329 4.06731 5.01938C2.89062 8.37491 2.24796 11.9193 2.41786 15.4573C2.77281 22.8544 8.73004 29.3187 15.2622 29.6135L15.4455 29.6218C15.4649 29.6213 15.4839 29.6209 15.5092 29.6206C15.5249 29.6209 15.5391 29.6212 15.5557 29.6218L15.7383 29.6135C22.27 29.3187 28.2272 22.8544 28.5821 15.4572C28.752 11.9193 28.1094 8.37491 26.9327 5.01938C26.5659 3.97329 26.173 3.0238 25.7806 2.18916C25.6436 1.89795 25.5168 1.64221 25.4032 1.42421C25.4013 1.42049 25.3994 1.41681 25.3975 1.41317ZM15.3935 16.8933C16.7337 17.2803 16.0928 19.4019 15.6812 20.3107C15.5511 20.5973 15.3935 20.6017 15.3935 20.6017C15.3935 20.6017 15.2358 20.5973 15.1057 20.3107C14.6941 19.4019 14.0532 17.2803 15.3935 16.8933ZM11.0573 9.78937C9.37899 9.78937 8.01376 11.1265 8.01376 12.7704C8.01376 14.4148 9.37899 15.7519 11.0573 15.7519C12.7357 15.7519 14.1009 14.4148 14.1009 12.7704C14.1009 11.1265 12.7357 9.78937 11.0573 9.78937ZM11.0573 16.6245C8.88769 16.6245 7.12292 14.8955 7.12292 12.7704C7.12292 10.6458 8.88769 8.91682 11.0573 8.91682C13.227 8.91682 14.9918 10.6458 14.9918 12.7704C14.9918 14.8955 13.227 16.6245 11.0573 16.6245ZM19.5204 9.78937C17.842 9.78937 16.4768 11.1265 16.4768 12.7704C16.4768 14.4148 17.842 15.7519 19.5204 15.7519C21.1987 15.7519 22.564 14.4148 22.564 12.7704C22.564 11.1265 21.1987 9.78937 19.5204 9.78937ZM19.5204 16.6245C17.3507 16.6245 15.586 14.8955 15.586 12.7704C15.586 10.6458 17.3507 8.91682 19.5204 8.91682C21.6901 8.91682 23.4548 10.6458 23.4548 12.7704C23.4548 14.8955 21.6901 16.6245 19.5204 16.6245ZM20.3108 5.97575C21.0372 5.97575 21.8239 6.07261 22.6559 6.31343C26.879 7.53631 28.7137 14.559 24.1035 19.0745C19.8738 23.2178 15.3808 25.7639 15.3808 25.7639C15.3808 25.7639 10.9007 23.2178 6.67055 19.0745C2.06041 14.559 3.89556 7.53631 8.11817 6.31343C8.95067 6.07261 9.73684 5.97575 10.4638 5.97575C13.3817 5.97575 15.3323 7.53675 15.387 7.58081C15.4418 7.53675 17.3923 5.97575 20.3108 5.97575ZM20.3108 6.8483C17.7322 6.8483 15.9714 8.24002 15.9541 8.25398L15.387 8.70989L14.82 8.25398C14.8026 8.24002 13.0414 6.8483 10.4638 6.8483C9.76669 6.8483 9.06292 6.94996 8.37073 7.15021C6.82422 7.59826 5.59975 9.02619 5.09464 10.9702C4.40468 13.6298 5.22915 16.4285 7.30082 18.4571C10.6304 21.7187 14.159 23.9948 15.3812 24.7426C16.6062 23.9952 20.1437 21.7192 23.4737 18.4571C25.5449 16.4285 26.3699 13.6298 25.6794 10.9702C25.1748 9.02619 23.9499 7.59826 22.4034 7.15021C21.7116 6.94996 21.0074 6.8483 20.3108 6.8483Z" fill="url(#paint0_linear_1_5010)"/>
<defs>
<linearGradient id="paint0_linear_1_5010" x1="1.31333" y1="15.5" x2="29.6867" y2="15.5" gradientUnits="userSpaceOnUse">
<stop stop-color="#1B99E5"/>
<stop offset="1" stop-color="#FDC420"/>
</linearGradient>
</defs>
</svg>
